<svg xmlns="http://www.w3.org/2000/svg" width="80" height="146.67"><g class="mobile-phone" data-name="Layer 2"><path d="M26.66 146.66v-13.33h13.33v13.33zm13.34.01v-13.33h13.33v13.33zm13.33 0v-13.33h13.33v13.33zM66.67 120v-13.33H80V120zm-.01-13.34V93.33h13.33v13.33zm.01-13.33V80H80v13.33zm0-13.33V66.67H80V80zm-.01-13.34V53.33h13.33v13.33zm.01-13.33V40H80v13.33zm0-13.33V26.67H80V40zM13.33 146.67v-13.33h13.33v13.33zM0 133.33V120h13.33v13.33zM0 120v-13.33h13.33V120zm13.34 0v-13.33h13.33V120zm13.33 0v-13.33H40V120zM40 120v-13.33h13.33V120zm13.34 0v-13.33h13.33V120zM0 106.67V93.34h13.33v13.33zm0-13.34V80h13.33v13.33zM0 80V66.67h13.33V80zm0-13.33V53.34h13.33v13.33zm0-13.34V40h13.33v13.33zM0 40V26.67h13.33V40zm0-13.33V13.34h13.33v13.33zm13.33-13.33V.01h13.33v13.33zm13.34-.01V0H40v13.33zm13.33 0V0h13.33v13.33zm13.33.01V.01h13.33v13.33zm13.33 13.32V13.33h13.33v13.33z"/><path d="M13.34 133.33V120h20v13.33zm32.5 0V120h20v13.33z"/><path d="M53.33 133.34v-13.33h13.33v13.33zm13.34-.01V120H80v13.33z"/></g></svg>